# xmcd
#
# Track frame offsets: 
#        150
#        25532
#        35045
#        48507
#
# Disc length: 696 seconds
#
# Revision: 0
# Processed by: cddbd v1.5PL3 Copyright (c) Steve Scherf et al.
# Submitted via: ExactAudioCopy v0.95a4
#
DISCID=2a02b604
DTITLE=Mahou Tsukai ni Taisetsu na Koto - Drama CD 2 'Anata ni Aete Yo
DTITLE=katta'
DYEAR=2003
DGENRE=Anime
TTITLE0=Scene 1, hajimemashite, Aota Rika desu
TTITLE1=Scene 2, mahoutsukai ni akogarete
TTITLE2=Scene 3, anata ni aete yokatta
TTITLE3='Ankichi*Yumemi no omake Corner' Drama CD Version
EXTD=
EXTT0=
EXTT1=
EXTT2=
EXTT3=
PLAYORDER=
